<svg xmlns="http://www.w3.org/2000/svg" xml:space="preserve" id="Layer_1" x="0" y="0" style="enable-background:new 0 0 100 70" version="1.1" viewBox="0 0 100 70"><style>.st0,.st4{fill:#fff}.st4{stroke:#c4c8cb;stroke-width:.7;stroke-miterlimit:10}.st5{fill:#c3c7ca}</style><path d="M13 73.5c-1.4 0-2.5-1.1-2.5-2.5V13c0-1.4 1.1-2.5 2.5-2.5h74c1.4 0 2.5 1.1 2.5 2.5v58c0 1.4-1.1 2.5-2.5 2.5H13z" class="st0"/><path d="M87 11c1.1 0 2 .9 2 2v58c0 1.1-.9 2-2 2H13c-1.1 0-2-.9-2-2V13c0-1.1.9-2 2-2h74m0-1H13c-1.7 0-3 1.3-3 3v58c0 1.7 1.3 3 3 3h74c1.6 0 3-1.3 3-3V13c0-1.7-1.4-3-3-3z" style="fill:#565d66"/><path d="M22.5 49.4c0-.3.2-.5.5-.5h19.7c.3 0 .5.2.5.5s-.3.5-.5.5H23c-.3 0-.5-.2-.5-.5zm.5 3.5h26.8c.3 0 .5-.2.5-.5s-.2-.5-.5-.5H23c-.3 0-.5.2-.5.5s.2.5.5.5zm14.9 2H23c-.3 0-.5.2-.5.5s.2.5.5.5h14.9c.2 0 .5-.2.5-.5s-.2-.5-.5-.5zm-14.9-8h36.7c.3 0 .5-.2.5-.5s-.2-.5-.5-.5H23c-.3 0-.5.2-.5.5s.2.5.5.5zm0-3h14.9c.2 0 .5-.2.5-.5s-.2-.5-.5-.5H23c-.3 0-.5.2-.5.5s.2.5.5.5zm0-3h22.2c.3 0 .5-.2.5-.5s-.2-.5-.5-.5H23c-.3 0-.5.2-.5.5s.2.5.5.5zm0-3h31.2c.2 0 .5-.2.5-.5s-.2-.5-.5-.5H23c-.3 0-.5.2-.5.5s.2.5.5.5zm34.2 0H77c.3 0 .5-.2.5-.5s-.2-.5-.5-.5H57.2c-.3 0-.5.2-.5.5s.2.5.5.5zm19.8 2H48.1c-.3 0-.5.2-.5.5s.2.5.5.5H77c.3 0 .5-.2.5-.5s-.2-.5-.5-.5zm-36.6 3.5c0 .3.2.5.5.5h23.2c.2 0 .5-.2.5-.5s-.2-.5-.5-.5H40.9c-.3 0-.5.2-.5.5zm36.6-.5h-9.9c-.3 0-.5.2-.5.5s.2.5.5.5H77c.3 0 .5-.2.5-.5s-.2-.5-.5-.5zm0 3H62.7c-.3 0-.5.2-.5.5s.2.5.5.5H77c.3 0 .5-.2.5-.5s-.2-.5-.5-.5zm0 3H45.7c-.3 0-.5.2-.5.5s.2.5.5.5H77c.3 0 .5-.2.5-.5s-.2-.5-.5-.5zm0 3H52.8c-.3 0-.5.2-.5.5s.2.5.5.5H77c.3 0 .5-.2.5-.5s-.2-.5-.5-.5zm0 3H40.9c-.3 0-.5.2-.5.5s.2.5.5.5H77c.3 0 .5-.2.5-.5s-.2-.5-.5-.5z" style="fill:#e6e7e8"/><path d="M79.7 28.8H43.5v-2.5H28.9v2.5h-8.6c-.2 0-.3.1-.3.3 0 .2.1.3.3.3h8.6V32h14.5v-2.6h36.2c.2 0 .3-.2.3-.3.1-.2 0-.3-.2-.3z" style="fill:#c4c8cb"/><path d="M43.1 26.6h13.8v5H43.1z" class="st4"/><path d="M52.5 29.9h-5c-.4 0-.8-.3-.8-.8 0-.4.3-.8.8-.8h5c.4 0 .8.3.8.8-.1.4-.4.8-.8.8z" class="st5"/><path d="M56.9 26.6h13.8v5H56.9z" class="st4"/><path d="M66.3 29.9h-5c-.4 0-.8-.3-.8-.8 0-.4.3-.8.8-.8h5c.4 0 .8.3.8.8 0 .4-.4.8-.8.8z" class="st5"/><path d="M38.7 29.9h-5c-.4 0-.8-.3-.8-.8 0-.4.3-.8.8-.8h5c.4 0 .8.3.8.8 0 .4-.4.8-.8.8z" class="st0"/></svg>