<svg xmlns="http://www.w3.org/2000/svg" xml:space="preserve" id="Layer_1" x="0" y="0" style="enable-background:new 0 0 100 70" version="1.1" viewBox="0 0 100 70"><style>.st0{fill:#fff}</style><path d="M13 73.5c-1.4 0-2.5-1.1-2.5-2.5V13c0-1.4 1.1-2.5 2.5-2.5h74c1.4 0 2.5 1.1 2.5 2.5v58c0 1.4-1.1 2.5-2.5 2.5H13z" class="st0"/><path d="M87 11c1.1 0 2 .9 2 2v58c0 1.1-.9 2-2 2H13c-1.1 0-2-.9-2-2V13c0-1.1.9-2 2-2h74m0-1H13c-1.7 0-3 1.3-3 3v58c0 1.7 1.3 3 3 3h74c1.6 0 3-1.3 3-3V13c0-1.7-1.4-3-3-3z" style="fill:#565d66"/><path d="M39 16.5v15c0 .3-.2.5-.5.5h-16c-.3 0-.5-.2-.5-.5v-15c0-.3.2-.5.5-.5h16c.3 0 .5.2.5.5zm19-.5H42c-.3 0-.5.2-.5.5v15c0 .3.2.5.5.5h16c.3 0 .5-.2.5-.5v-15c0-.3-.2-.5-.5-.5zm19.5 0h-16c-.3 0-.5.2-.5.5v15c0 .3.2.5.5.5h16c.3 0 .5-.2.5-.5v-15c0-.3-.2-.5-.5-.5zM58 44H42c-.3 0-.5.2-.5.5v15c0 .3.2.5.5.5h16c.3 0 .5-.2.5-.5v-15c0-.3-.2-.5-.5-.5zm19.5 0h-16c-.3 0-.5.2-.5.5v15c0 .3.2.5.5.5h16c.3 0 .5-.2.5-.5v-15c0-.3-.2-.5-.5-.5zm-39 0h-16c-.3 0-.5.2-.5.5v15c0 .3.2.5.5.5h16c.3 0 .5-.2.5-.5v-15c0-.3-.2-.5-.5-.5z" style="fill:#c3c7ca"/><path d="M36 38c0 .6-.4 1-1 1h-9c-.6 0-1-.4-1-1s.4-1 1-1h9c.6 0 1 .4 1 1zm-9-3h7c.3 0 .5-.2.5-.5s-.2-.5-.5-.5h-7c-.3 0-.5.2-.5.5s.2.5.5.5zm27.5 2h-9c-.6 0-1 .4-1 1s.4 1 1 1h9c.6 0 1-.4 1-1s-.4-1-1-1zm-8-2h7c.3 0 .5-.2.5-.5s-.2-.5-.5-.5h-7c-.3 0-.5.2-.5.5s.2.5.5.5zM65 39h9c.6 0 1-.4 1-1s-.4-1-1-1h-9c-.6 0-1 .4-1 1s.4 1 1 1zm1-4h7c.3 0 .5-.2.5-.5s-.2-.5-.5-.5h-7c-.3 0-.5.2-.5.5s.2.5.5.5zM54.5 65h-9c-.6 0-1 .4-1 1s.4 1 1 1h9c.6 0 1-.4 1-1s-.4-1-1-1zm-1-2c.3 0 .5-.2.5-.5s-.2-.5-.5-.5h-7c-.3 0-.5.2-.5.5s.2.5.5.5h7zM74 65h-9c-.6 0-1 .4-1 1s.4 1 1 1h9c.6 0 1-.4 1-1s-.4-1-1-1zm-8-3c-.3 0-.5.2-.5.5s.2.5.5.5h7c.3 0 .5-.2.5-.5s-.2-.5-.5-.5h-7zm-31 3h-9c-.6 0-1 .4-1 1s.4 1 1 1h9c.6 0 1-.4 1-1s-.4-1-1-1zm-1-2c.3 0 .5-.2.5-.5s-.2-.5-.5-.5h-7c-.3 0-.5.2-.5.5s.2.5.5.5h7z" style="fill:#e6e7e8"/><path d="M29.9 28.6c0 .6-.4 1-1 1h-4c-.6 0-1-.4-1-1s.4-1 1-1h4c.6 0 1 .4 1 1zm6.1-1h-4c-.6 0-1 .4-1 1s.4 1 1 1h4c.6 0 1-.4 1-1s-.4-1-1-1zm12.4 0h-4c-.6 0-1 .4-1 1s.4 1 1 1h4c.6 0 1-.4 1-1s-.4-1-1-1zm7.1 0h-4c-.6 0-1 .4-1 1s.4 1 1 1h4c.6 0 1-.4 1-1s-.4-1-1-1zm12.4 0h-4c-.6 0-1 .4-1 1s.4 1 1 1h4c.6 0 1-.4 1-1s-.4-1-1-1zm3.1 2h4c.6 0 1-.4 1-1s-.4-1-1-1h-4c-.6 0-1 .4-1 1s.4 1 1 1zm-22.6 26h-4c-.6 0-1 .4-1 1s.4 1 1 1h4c.6 0 1-.4 1-1s-.4-1-1-1zm7.1 0h-4c-.6 0-1 .4-1 1s.4 1 1 1h4c.6 0 1-.4 1-1s-.4-1-1-1zm12.4 0h-4c-.6 0-1 .4-1 1s.4 1 1 1h4c.6 0 1-.4 1-1s-.4-1-1-1zm7.1 0h-4c-.6 0-1 .4-1 1s.4 1 1 1h4c.6 0 1-.4 1-1s-.4-1-1-1zm-46.1 0h-4c-.6 0-1 .4-1 1s.4 1 1 1h4c.6 0 1-.4 1-1s-.4-1-1-1zm7.1 0h-4c-.6 0-1 .4-1 1s.4 1 1 1h4c.6 0 1-.4 1-1s-.4-1-1-1z" class="st0"/></svg>