<svg xmlns="http://www.w3.org/2000/svg" xml:space="preserve" viewBox="0 0 100 70"><path fill="#FFF" d="M13 73.5c-1.4 0-2.5-1.1-2.5-2.5V13c0-1.4 1.1-2.5 2.5-2.5h74c1.4 0 2.5 1.1 2.5 2.5v58c0 1.4-1.1 2.5-2.5 2.5H13z"/><path fill="#E6E7E8" d="M22 42.2v-12c0-.6.4-1 1-1h15c.6 0 1 .4 1 1v12c0 .6-.4 1-1 1H23c-.5 0-1-.5-1-1zm.5 4h16c.3 0 .5-.2.5-.5s-.2-.5-.5-.5h-16c-.3 0-.5.2-.5.5 0 .2.3.5.5.5zm0 2h10.2c.3 0 .5-.2.5-.5s-.2-.5-.5-.5H22.5c-.3 0-.5.2-.5.5s.3.5.5.5zm1 5h6c.8 0 1.5-.7 1.5-1.5s-.7-1.5-1.5-1.5h-6c-.8 0-1.5.7-1.5 1.5s.7 1.5 1.5 1.5zm19.1-10h15c.6 0 1-.4 1-1v-12c0-.6-.4-1-1-1h-15c-.6 0-1 .4-1 1v12c0 .5.4 1 1 1zm-.5 3h16c.3 0 .5-.2.5-.5s-.2-.5-.5-.5h-16c-.3 0-.5.2-.5.5 0 .2.2.5.5.5zm0 2h10.2c.3 0 .5-.2.5-.5s-.2-.5-.5-.5H42.1c-.3 0-.5.2-.5.5s.2.5.5.5zm.9 5h6c.8 0 1.5-.7 1.5-1.5s-.7-1.5-1.5-1.5h-6c-.8 0-1.5.7-1.5 1.5s.7 1.5 1.5 1.5zm-4.9 3.1h-15c-.6 0-1 .4-1 1v12c0 .6.4 1 1 1h15c.6 0 1-.4 1-1v-12c0-.5-.5-1-1-1zm19.5 0h-15c-.6 0-1 .4-1 1v12c0 .6.4 1 1 1h15c.6 0 1-.4 1-1v-12c0-.5-.5-1-1-1z"/><path fill="#C3C7CA" d="M87.1 73.5H55.7v-63h31.4c1.3 0 2.4 1.1 2.4 2.4v58.2c0 1.4-1.1 2.4-2.4 2.4z"/><path fill="#565D66" d="M87 11c1.1 0 2 .9 2 2v58c0 1.1-.9 2-2 2H13c-1.1 0-2-.9-2-2V13c0-1.1.9-2 2-2h74m0-1H13c-1.7 0-3 1.3-3 3v58c0 1.7 1.3 3 3 3h74c1.6 0 3-1.3 3-3V13c0-1.7-1.4-3-3-3z"/><path fill="#C3C7CA" d="M33.4 22.6h-9.9c-.8 0-1.5-.7-1.5-1.5s.7-1.5 1.5-1.5h9.9c.8 0 1.5.7 1.5 1.5s-.7 1.5-1.5 1.5z"/><path fill="#FFF" d="M61.8 21.1c0-.4.3-.8.8-.8h15.9c.4 0 .8.3.8.8 0 .4-.3.8-.8.8h-16c-.4-.1-.7-.4-.7-.8zm1.5 7.6c.8 0 1.5-.7 1.5-1.5s-.7-1.5-1.5-1.5-1.5.7-1.5 1.5.6 1.5 1.5 1.5zm4-1h9c.3 0 .5-.2.5-.5s-.2-.5-.5-.5h-9c-.3 0-.5.2-.5.5s.2.5.5.5zm-4 11c.8 0 1.5-.7 1.5-1.5s-.7-1.5-1.5-1.5-1.5.7-1.5 1.5.6 1.5 1.5 1.5zm4-1h7c.3 0 .5-.2.5-.5s-.2-.5-.5-.5h-7c-.3 0-.5.2-.5.5s.2.5.5.5zm-4 6c.8 0 1.5-.7 1.5-1.5s-.7-1.5-1.5-1.5-1.5.7-1.5 1.5.6 1.5 1.5 1.5zm4-1H76c.3 0 .5-.2.5-.5s-.2-.5-.5-.5h-8.7c-.3 0-.5.2-.5.5s.2.5.5.5zm-4-9c.8 0 1.5-.7 1.5-1.5s-.7-1.5-1.5-1.5-1.5.7-1.5 1.5.6 1.5 1.5 1.5zM78 32.2c0-.3-.2-.5-.5-.5H67.3c-.3 0-.5.2-.5.5s.2.5.5.5h10.3c.2 0 .4-.2.4-.5zm-15.7 23h9c.3 0 .5-.2.5-.5s-.2-.5-.5-.5h-9c-.3 0-.5.2-.5.5s.2.5.5.5zm14.6 3H62.3c-.3 0-.5.2-.5.5s.2.5.5.5h14.6c.3 0 .5-.2.5-.5 0-.2-.2-.5-.5-.5zm-14.6 5h12.5c.3 0 .5-.2.5-.5s-.2-.5-.5-.5H62.3c-.3 0-.5.2-.5.5s.2.5.5.5zm16.1-13.5H62.5c-.4 0-.8.3-.8.8 0 .4.3.8.8.8h15.9c.4 0 .8-.3.8-.8-.1-.4-.4-.8-.8-.8z"/></svg>