<svg xmlns="http://www.w3.org/2000/svg" xml:space="preserve" style="enable-background:new 0 0 100 70" viewBox="0 0 100 70"><path d="M13 73.5c-1.4 0-2.5-1.1-2.5-2.5V13c0-1.4 1.1-2.5 2.5-2.5h74c1.4 0 2.5 1.1 2.5 2.5v58c0 1.4-1.1 2.5-2.5 2.5H13z" style="fill:#fff"/><path d="M87 11c1.1 0 2 .9 2 2v58c0 1.1-.9 2-2 2H13c-1.1 0-2-.9-2-2V13c0-1.1.9-2 2-2h74m0-1H13c-1.7 0-3 1.3-3 3v58c0 1.7 1.3 3 3 3h74c1.6 0 3-1.3 3-3V13c0-1.7-1.4-3-3-3z" style="fill:#565d66"/><path d="M22.5 35.3c0-.3.2-.5.5-.5h22.2c.3 0 .5.2.5.5s-.2.5-.5.5H23c-.3 0-.5-.2-.5-.5zm17.9 3c0 .3.2.5.5.5h23.2c.2 0 .5-.2.5-.5s-.2-.5-.5-.5H40.9c-.3 0-.5.2-.5.5zm-17.4.5h14.9c.2 0 .5-.2.5-.5s-.2-.5-.5-.5H23c-.3 0-.5.2-.5.5s.2.5.5.5zm0-6h31.2c.2 0 .5-.2.5-.5s-.2-.5-.5-.5H23c-.3 0-.5.2-.5.5s.2.5.5.5zm34.2 0H77c.3 0 .5-.2.5-.5s-.2-.5-.5-.5H57.2c-.3 0-.5.2-.5.5s.2.5.5.5zm-34.2 9h36.7c.3 0 .5-.2.5-.5s-.2-.5-.5-.5H23c-.3 0-.5.2-.5.5s.2.5.5.5zm54-1H62.7c-.3 0-.5.2-.5.5s.2.5.5.5H77c.3 0 .5-.2.5-.5s-.2-.5-.5-.5zm0-6H48.1c-.3 0-.5.2-.5.5s.2.5.5.5H77c.3 0 .5-.2.5-.5s-.2-.5-.5-.5zm0 3h-9.9c-.3 0-.5.2-.5.5s.2.5.5.5H77c.3 0 .5-.2.5-.5s-.2-.5-.5-.5zm0 16H57.2c-.3 0-.5.2-.5.5s.2.5.5.5H77c.3 0 .5-.2.5-.5s-.2-.5-.5-.5zm0 9H62.7c-.3 0-.5.2-.5.5s.2.5.5.5H77c.3 0 .5-.2.5-.5s-.2-.5-.5-.5zm-54-2h14.9c.2 0 .5-.2.5-.5s-.2-.5-.5-.5H23c-.3 0-.5.2-.5.5s.2.5.5.5zm36.7 2H23c-.3 0-.5.2-.5.5s.2.5.5.5h36.7c.3 0 .5-.2.5-.5s-.2-.5-.5-.5zm-36.7-8h31.2c.2 0 .5-.2.5-.5s-.2-.5-.5-.5H23c-.3 0-.5.2-.5.5s.2.5.5.5zm17.4 5.5c0 .3.2.5.5.5h23.2c.2 0 .5-.2.5-.5s-.2-.5-.5-.5H40.9c-.3 0-.5.2-.5.5zM77 56.8H48.1c-.3 0-.5.2-.5.5s.2.5.5.5H77c.3 0 .5-.2.5-.5s-.2-.5-.5-.5zm-54 1h22.2c.3 0 .5-.2.5-.5s-.2-.5-.5-.5H23c-.3 0-.5.2-.5.5s.2.5.5.5zm54 2h-9.9c-.3 0-.5.2-.5.5s.2.5.5.5H77c.3 0 .5-.2.5-.5s-.2-.5-.5-.5z" style="fill:#e6e7e8"/><path d="M22.5 26.4c0-.6.4-1 1-1h8c.6 0 1 .4 1 1s-.4 1-1 1h-8c-.6 0-1-.4-1-1zm13.2 21H23.5c-.6 0-1 .4-1 1s.4 1 1 1h12.2c.6 0 1-.4 1-1s-.5-1-1-1zm11.7-22H35.5c-.6 0-1 .4-1 1s.4 1 1 1h11.9c.6 0 1-.4 1-1s-.4-1-1-1z" style="fill:#c3c7ca"/></svg>