<svg xmlns="http://www.w3.org/2000/svg" xml:space="preserve" style="enable-background:new 0 0 100 70" viewBox="0 0 100 70"><path d="M13 73.5c-1.4 0-2.5-1.1-2.5-2.5V13c0-1.4 1.1-2.5 2.5-2.5h74c1.4 0 2.5 1.1 2.5 2.5v58c0 1.4-1.1 2.5-2.5 2.5H13z" style="fill:#fff"/><path d="M87 11c1.1 0 2 .9 2 2v58c0 1.1-.9 2-2 2H13c-1.1 0-2-.9-2-2V13c0-1.1.9-2 2-2h74m0-1H13c-1.7 0-3 1.3-3 3v58c0 1.7 1.3 3 3 3h74c1.6 0 3-1.3 3-3V13c0-1.7-1.4-3-3-3z" style="fill:#565d66"/><path d="M80 31.5c0 .2-.1.4-.3.4H20.3c-.2 0-.3-.1-.3-.3 0-.2.1-.3.3-.3h59.3c.3-.1.4 0 .4.2zm-47.8-3.3h8c.6 0 1-.4 1-1s-.4-1-1-1h-8c-.6 0-1 .4-1 1s.4 1 1 1z" style="fill:#c3c7ca"/><path d="M45 27.2c0-.6.4-1 1-1h8c.6 0 1 .4 1 1s-.4 1-1 1h-8c-.6 0-1-.4-1-1zm15 1h8c.6 0 1-.4 1-1s-.4-1-1-1h-8c-.6 0-1 .4-1 1s.5 1 1 1zM23 46.9h36.7c.3 0 .5-.2.5-.5s-.2-.5-.5-.5H23c-.3 0-.5.2-.5.5s.2.5.5.5zm0 3h19.7c.3 0 .5-.2.5-.5s-.2-.5-.5-.5H23c-.3 0-.5.2-.5.5s.2.5.5.5zm0-6h14.9c.3 0 .5-.2.5-.5s-.2-.5-.5-.5H23c-.3 0-.5.2-.5.5s.2.5.5.5zm34.2-6H77c.3 0 .5-.2.5-.5s-.2-.5-.5-.5H57.2c-.3 0-.5.2-.5.5s.2.5.5.5zm-34.2 3h22.2c.3 0 .5-.2.5-.5s-.2-.5-.5-.5H23c-.3 0-.5.2-.5.5s.2.5.5.5zm0-3h31.2c.3 0 .5-.2.5-.5s-.2-.5-.5-.5H23c-.3 0-.5.2-.5.5s.2.5.5.5zm17.4 5.5c0 .3.2.5.5.5h23.2c.3 0 .5-.2.5-.5s-.2-.5-.5-.5H40.9c-.3 0-.5.2-.5.5zM77 48.9H45.7c-.3 0-.5.2-.5.5s.2.5.5.5H77c.3 0 .5-.2.5-.5s-.2-.5-.5-.5zm0-6h-9.9c-.3 0-.5.2-.5.5s.2.5.5.5H77c.3 0 .5-.2.5-.5s-.2-.5-.5-.5zm0 3H62.7c-.3 0-.5.2-.5.5s.2.5.5.5H77c.3 0 .5-.2.5-.5s-.2-.5-.5-.5zm-54 7h26.8c.3 0 .5-.2.5-.5s-.2-.5-.5-.5H23c-.3 0-.5.2-.5.5s.2.5.5.5zm54-13H48.1c-.3 0-.5.2-.5.5s.2.5.5.5H77c.3 0 .5-.2.5-.5s-.2-.5-.5-.5zm-39.1 15H23c-.3 0-.5.2-.5.5s.2.5.5.5h14.9c.3 0 .5-.2.5-.5s-.3-.5-.5-.5zm39.1 0H40.9c-.3 0-.5.2-.5.5s.2.5.5.5H77c.3 0 .5-.2.5-.5s-.2-.5-.5-.5zm0-3H52.8c-.3 0-.5.2-.5.5s.2.5.5.5H77c.3 0 .5-.2.5-.5s-.2-.5-.5-.5z" style="fill:#e6e7e8"/></svg>