<svg xmlns="http://www.w3.org/2000/svg" xml:space="preserve" viewBox="0 0 100 70"><path fill="#FFF" d="M13 73.5c-1.4 0-2.5-1.1-2.5-2.5V13c0-1.4 1.1-2.5 2.5-2.5h74c1.4 0 2.5 1.1 2.5 2.5v58c0 1.4-1.1 2.5-2.5 2.5H13z"/><path fill="#E6E7E8" d="M22 60.4v-12c0-.6.4-1 1-1h15c.6 0 1 .4 1 1v12c0 .6-.4 1-1 1H23c-.5 0-1-.5-1-1zm.5 4h16c.3 0 .5-.2.5-.5s-.2-.5-.5-.5h-16c-.3 0-.5.2-.5.5 0 .2.3.5.5.5zm0 2h10.2c.3 0 .5-.2.5-.5s-.2-.5-.5-.5H22.5c-.3 0-.5.2-.5.5s.3.5.5.5zm20.1-5h15c.6 0 1-.4 1-1v-12c0-.6-.4-1-1-1h-15c-.6 0-1 .4-1 1v12c0 .5.4 1 1 1zm-.5 3h16c.3 0 .5-.2.5-.5s-.2-.5-.5-.5h-16c-.3 0-.5.2-.5.5 0 .2.2.5.5.5zm0 2h10.2c.3 0 .5-.2.5-.5s-.2-.5-.5-.5H42.1c-.3 0-.5.2-.5.5s.2.5.5.5zm20.1-5h15c.6 0 1-.4 1-1v-12c0-.6-.4-1-1-1h-15c-.6 0-1 .4-1 1v12c0 .5.4 1 1 1zm-.5 3h16c.3 0 .5-.2.5-.5s-.2-.5-.5-.5h-16c-.3 0-.5.2-.5.5 0 .2.2.5.5.5zm0 2h10.2c.3 0 .5-.2.5-.5s-.2-.5-.5-.5H61.7c-.3 0-.5.2-.5.5s.2.5.5.5z"/><path fill="#565D66" d="M87 11c1.1 0 2 .9 2 2v58c0 1.1-.9 2-2 2H13c-1.1 0-2-.9-2-2V13c0-1.1.9-2 2-2h74m0-1H13c-1.7 0-3 1.3-3 3v58c0 1.7 1.3 3 3 3h74c1.6 0 3-1.3 3-3V13c0-1.7-1.4-3-3-3z"/><path fill="#C3C7CA" d="M22 21.1c0-.8.7-1.5 1.5-1.5h9.9c.8 0 1.5.7 1.5 1.5s-.7 1.5-1.5 1.5h-9.9c-.8 0-1.5-.7-1.5-1.5zm1.5 5.7c-.8 0-1.5.7-1.5 1.5s.7 1.5 1.5 1.5 1.5-.7 1.5-1.5-.7-1.5-1.5-1.5zm3.5 1.5c0 .3.2.5.5.5h9c.3 0 .5-.2.5-.5s-.2-.5-.5-.5h-9c-.3 0-.5.2-.5.5zm-3.5 8.5c-.8 0-1.5.7-1.5 1.5s.7 1.5 1.5 1.5 1.5-.7 1.5-1.5-.7-1.5-1.5-1.5zm11 1h-7c-.3 0-.5.2-.5.5s.2.5.5.5h7c.3 0 .5-.2.5-.5s-.2-.5-.5-.5zm-11-6c-.8 0-1.5.7-1.5 1.5s.7 1.5 1.5 1.5 1.5-.7 1.5-1.5-.7-1.5-1.5-1.5zm14.3 1H27.5c-.3 0-.5.2-.5.5s.2.5.5.5h10.3c.3 0 .5-.2.5-.5s-.2-.5-.5-.5zm5.3-6c-.8 0-1.5.7-1.5 1.5s.7 1.5 1.5 1.5 1.5-.7 1.5-1.5-.7-1.5-1.5-1.5zm4 2h9c.3 0 .5-.2.5-.5s-.2-.5-.5-.5h-9c-.3 0-.5.2-.5.5s.2.5.5.5zm-4 8c-.8 0-1.5.7-1.5 1.5s.7 1.5 1.5 1.5 1.5-.7 1.5-1.5-.7-1.5-1.5-1.5zm11 1h-7c-.3 0-.5.2-.5.5s.2.5.5.5h7c.3 0 .5-.2.5-.5s-.2-.5-.5-.5zm-11-6c-.8 0-1.5.7-1.5 1.5s.7 1.5 1.5 1.5 1.5-.7 1.5-1.5-.7-1.5-1.5-1.5zm14.3 1H47.1c-.3 0-.5.2-.5.5s.2.5.5.5h10.3c.3 0 .5-.2.5-.5s-.2-.5-.5-.5zm5.2-6c-.8 0-1.5.7-1.5 1.5s.7 1.5 1.5 1.5 1.5-.7 1.5-1.5-.7-1.5-1.5-1.5zm4 2h9c.3 0 .5-.2.5-.5s-.2-.5-.5-.5h-9c-.3 0-.5.2-.5.5s.2.5.5.5zm-4 8c-.8 0-1.5.7-1.5 1.5s.7 1.5 1.5 1.5 1.5-.7 1.5-1.5-.7-1.5-1.5-1.5zm11 1h-7c-.3 0-.5.2-.5.5s.2.5.5.5h7c.3 0 .5-.2.5-.5s-.2-.5-.5-.5zm-11-6c-.8 0-1.5.7-1.5 1.5s.7 1.5 1.5 1.5 1.5-.7 1.5-1.5-.7-1.5-1.5-1.5zm14.3 1H66.6c-.3 0-.5.2-.5.5s.2.5.5.5h10.3c.3 0 .5-.2.5-.5s-.2-.5-.5-.5z"/></svg>