<svg xmlns="http://www.w3.org/2000/svg" xml:space="preserve" style="enable-background:new 0 0 100 70" viewBox="0 0 100 70"><path d="M13 73.5c-1.4 0-2.5-1.1-2.5-2.5V13c0-1.4 1.1-2.5 2.5-2.5h74c1.4 0 2.5 1.1 2.5 2.5v58c0 1.4-1.1 2.5-2.5 2.5H13z" style="fill:#fff"/><path d="M87 11c1.1 0 2 .9 2 2v58c0 1.1-.9 2-2 2H13c-1.1 0-2-.9-2-2V13c0-1.1.9-2 2-2h74m0-1H13c-1.7 0-3 1.3-3 3v58c0 1.7 1.3 3 3 3h74c1.6 0 3-1.3 3-3V13c0-1.7-1.4-3-3-3z" style="fill:#565d66"/><path d="M19.7 23.1v6.6h60.6v-6.6H19.7zm18.9 4.1H23.3c-.4 0-.8-.4-.8-.8s.4-.8.8-.8h15.3c.4 0 .8.4.8.8s-.3.8-.8.8zm38.1 0c-.4 0-.8-.4-.8-.8s.4-.8.8-.8.8.4.8.8-.4.8-.8.8z" style="fill:#c4c8cb"/><path d="M77.5 41.8c0 .3-.2.5-.5.5h-9.9c-.3 0-.5-.2-.5-.5s.2-.5.5-.5H77c.3 0 .5.2.5.5zm-36.6-.5c-.3 0-.5.2-.5.5s.2.5.5.5h23.2c.2 0 .5-.2.5-.5s-.2-.5-.5-.5H40.9zm36.1-3H48.1c-.3 0-.5.2-.5.5s.2.5.5.5H77c.3 0 .5-.2.5-.5s-.2-.5-.5-.5zm-19.8-2H77c.3 0 .5-.2.5-.5s-.2-.5-.5-.5H57.2c-.3 0-.5.2-.5.5s.2.5.5.5zm-34.2 6h14.9c.2 0 .5-.2.5-.5s-.2-.5-.5-.5H23c-.3 0-.5.2-.5.5s.2.5.5.5zm0-6h31.2c.2 0 .5-.2.5-.5s-.2-.5-.5-.5H23c-.3 0-.5.2-.5.5s.2.5.5.5zm0 3h22.2c.3 0 .5-.2.5-.5s-.2-.5-.5-.5H23c-.3 0-.5.2-.5.5s.2.5.5.5zm57.3 8.6v6.6H19.7v-6.6h60.6zm-32.7 3.3c0-.4-.4-.8-.8-.8H23.3c-.4 0-.8.4-.8.8s.4.8.8.8h23.5c.4 0 .8-.3.8-.8zm29.9 0c0-.4-.4-.8-.8-.8s-.8.4-.8.8.4.8.8.8.8-.3.8-.8zm-57.8 5.7h60.6v6.6H19.7v-6.6zm56.2 3.3c0 .4.4.8.8.8s.8-.4.8-.8-.4-.8-.8-.8-.8.4-.8.8zm-53.4 0c0 .4.4.8.8.8h17.2c.4 0 .8-.4.8-.8s-.4-.8-.8-.8H23.3c-.4 0-.8.4-.8.8z" style="fill:#e6e7e8"/></svg>