<svg width="11" height="11" viewBox="0 0 11 11" fill="none" xmlns="http://www.w3.org/2000/svg">
<path d="M5.19211 2.5979C3.73338 2.5979 2.59375 3.78312 2.59375 5.19626C2.59375 6.65499 3.77897 7.79462 5.19211 7.79462C6.65084 7.79462 7.79047 6.6094 7.79047 5.19626C7.79047 3.78312 6.65084 2.5979 5.19211 2.5979ZM5.19211 6.88292C4.28041 6.88292 3.50546 6.10797 3.50546 5.19626C3.50546 4.28456 4.28041 3.50961 5.19211 3.50961C6.10382 3.50961 6.87877 4.28456 6.87877 5.19626C6.87877 6.15355 6.10382 6.88292 5.19211 6.88292Z" fill="black"/>
<path d="M7.80092 2.07785C7.5211 2.07785 7.28125 2.3177 7.28125 2.59752C7.28125 2.87735 7.5211 3.11719 7.80092 3.11719C8.08074 3.11719 8.32059 2.87735 8.32059 2.59752C8.32059 2.3177 8.08074 2.07785 7.80092 2.07785Z" fill="black"/>
<path d="M10.2941 2.61588C10.2011 1.9152 9.96875 1.30794 9.45754 0.840818C8.94632 0.326985 8.2492 0.0934241 7.55209 0.046712C6.34375 -8.70081e-08 3.41587 -0.046712 2.39343 0.0934243C1.23157 0.280273 0.487981 0.980954 0.16266 2.10204C-0.0697119 2.98957 -0.0232368 7.10024 0.116186 7.94106C0.302084 9.15557 0.9992 9.90297 2.20753 10.2299C3.04407 10.4635 7.04087 10.4168 7.97036 10.2767C9.17869 10.0898 9.92228 9.38913 10.2476 8.17462C10.48 7.3338 10.387 3.4567 10.2941 2.61588ZM9.31811 7.84763C9.17869 8.78188 8.57452 9.34242 7.64504 9.43584C6.8085 9.52927 3.04407 9.57598 2.30048 9.34242C1.55689 9.15557 1.13862 8.64174 0.999199 7.84763C0.859776 7.14695 0.859776 3.55012 0.999199 2.56917C1.13862 1.68164 1.74279 1.12109 2.6258 0.980954C3.55529 0.88753 6.85497 0.88753 7.73798 0.980954C8.621 1.12109 9.22517 1.72835 9.31811 2.66259C9.45754 3.59683 9.45754 6.91339 9.31811 7.84763Z" fill="black"/>
</svg>
