<svg width="5" height="12" viewBox="0 0 5 12" fill="none" xmlns="http://www.w3.org/2000/svg">
<path d="M4.00763 2.05578C4.31298 2.05578 4.61832 2.05578 4.8855 2.05578C4.92366 2.05578 4.96183 2.05578 5 2.05578V0.0956174C4.84733 0.0956174 4.65649 0.0478089 4.50382 0.0478089C4.19847 0.0478089 3.89313 0 3.58779 0C3.12977 0 2.67176 0.143426 2.29008 0.525897C1.83206 0.908367 1.60305 1.48207 1.52672 2.15139C1.48855 2.43825 1.48855 2.7251 1.48855 2.96414C1.48855 3.39442 1.48855 3.8247 1.48855 4.25498V4.39841H0V6.5498H1.48855V12H3.28244V6.59761H4.77099C4.84733 5.88048 4.92366 5.16335 5 4.39841C4.8855 4.39841 4.77099 4.39841 4.65649 4.39841C4.23664 4.39841 3.28244 4.39841 3.28244 4.39841C3.28244 4.39841 3.28244 3.2988 3.28244 2.86853C3.32061 2.24701 3.62595 2.05578 4.00763 2.05578Z" fill="black"/>
</svg>
