<svg width="10" height="10" viewBox="0 0 10 10" fill="none" xmlns="http://www.w3.org/2000/svg">
<path d="M3.03419 7.79557C1.96581 7.74321 1.32479 6.80056 1.11111 6.06738C1.41026 6.11975 1.7094 6.11975 2.00855 6.01502C2.00855 6.01502 2.00855 6.01502 2.05128 6.01502C1.49573 5.85791 1.02564 5.49132 0.726496 4.86289C0.512821 4.44393 0.42735 4.02498 0.42735 3.50128C0.726496 3.71076 1.02564 3.8155 1.32479 3.8155C0.897436 3.44891 0.598291 2.92522 0.470086 2.29679C0.341881 1.66835 0.427351 1.03992 0.683761 0.463858C1.79487 2.08731 3.20513 2.92522 4.91453 3.08233C4.91453 2.97759 4.87179 2.87285 4.87179 2.82048C4.82906 2.24442 4.91453 1.66835 5.17094 1.19703C5.51282 0.568596 5.98291 0.202011 6.5812 0.0449026C7.26496 -0.112206 7.86325 0.149641 8.37607 0.725705C8.4188 0.778074 8.4188 0.778074 8.50427 0.778074C8.93162 0.673335 9.31624 0.463858 9.70085 0.20201C9.70085 0.20201 9.70086 0.20201 9.74359 0.20201C9.57265 0.778074 9.2735 1.2494 8.84615 1.56362C9.23077 1.51125 9.61538 1.40651 10 1.19703C9.91453 1.30177 9.82906 1.45888 9.74359 1.56362C9.52992 1.87783 9.2735 2.19205 9.01709 2.45389C8.97436 2.45389 8.97436 2.50626 8.97436 2.55863C8.97436 2.92522 8.97436 3.29181 8.93162 3.65839C8.84615 4.44393 8.67521 5.1771 8.4188 5.91028C8.11966 6.64345 7.77778 7.32425 7.30769 7.90031C6.53846 8.89533 5.59829 9.52377 4.48718 9.83798C4.10256 9.94272 3.71795 9.99509 3.33333 9.99509C2.13675 10.0475 1.06838 9.68087 0.0427352 8.89533C0.0427352 8.89533 0 8.89533 0 8.84296C0.726496 8.9477 1.41026 8.84296 2.05128 8.47638C2.4359 8.31927 2.73504 8.05742 3.03419 7.79557Z" fill="black"/>
</svg>
