<?xml version="1.0" encoding="utf-8"?>
<!-- Generator: Adobe Illustrator 25.4.1, SVG Export Plug-In . SVG Version: 6.00 Build 0)  -->
<svg version="1.1" id="Layer_1" xmlns="http://www.w3.org/2000/svg" xmlns:xlink="http://www.w3.org/1999/xlink" x="0px" y="0px"
	 viewBox="0 0 350 350" style="" xml:space="preserve">
<style type="text/css">
	.st1{fill:#265FFF;}
	.st2{fill:#FFD300;}
	.st3{fill:#FFE980;}
</style>
<g id="depicter_logotype" transform="translate(-165 -386.994)">
	<path id="Rectangle_779" class="st1" d="M239.5,547.7l114.2-114.2l0,0l144.8,144.8l0,0L353.1,723.5l0,0L239.5,609.9
		C222.3,592.7,222.3,564.9,239.5,547.7z"/>
	<path id="Rectangle_780" class="st2" d="M207.2,477l43.5-43.5l0,0l144.8,144.8l0,0L250.1,723.5l0,0l-42.9-42.9
		C150.9,624.4,150.9,533.2,207.2,477z"/>
	<path id="Intersection_22" class="st3" d="M267.8,638.2c-32.8-32.8-32.8-86,0-118.8c0,0,0,0,0,0l34.4-34.4l93.3,93.3L301.6,672
		L267.8,638.2z"/>
</g>
</svg>
